<?xml version="1.0" standalone="no"?>
<!DOCTYPE svg PUBLIC "-//W3C//DTD SVG 20010904//EN"
 "http://www.w3.org/TR/2001/REC-SVG-20010904/DTD/svg10.dtd">
<svg version="1.0" xmlns="http://www.w3.org/2000/svg"
 width="225.000000pt" height="225.000000pt" viewBox="0 0 225.000000 225.000000"
 preserveAspectRatio="xMidYMid meet">
<metadata>
Created by potrace 1.11, written by Peter Selinger 2001-2013
</metadata>
<g transform="translate(0.000000,225.000000) scale(0.100000,-0.100000)"
fill="#000000" stroke="none">
<path d="M0 1125 l0 -1125 1125 0 1125 0 0 1125 0 1125 -1125 0 -1125 0 0
-1125z m1567 974 c156 -39 322 -155 429 -299 79 -106 124 -235 131 -370 6
-118 -9 -204 -52 -295 -27 -56 -102 -148 -138 -166 -20 -11 -20 -11 1 22 68
112 87 298 43 439 -133 433 -630 692 -977 510 -64 -34 -62 -18 8 47 140 128
336 168 555 112z m-935 -100 c43 -12 144 -53 224 -93 l147 -71 -40 -27 -40
-26 -54 34 c-119 74 -281 124 -399 124 -160 -1 -229 -76 -217 -234 29 -376
599 -1031 1127 -1296 165 -82 239 -104 361 -104 99 -1 108 1 148 27 114 76
109 249 -14 493 -60 118 -61 122 -46 153 8 17 17 31 20 31 10 0 101 -164 132
-239 37 -89 69 -211 69 -266 0 -66 -28 -142 -67 -186 -95 -105 -245 -123 -450
-54 l-77 26 -221 -37 c-216 -37 -221 -39 -240 -68 -38 -56 -69 -71 -148 -70
-133 1 -289 88 -464 257 -158 153 -249 300 -260 418 -9 89 15 137 90 184 12 7
24 61 45 204 l29 194 -34 74 c-75 163 -93 336 -46 428 29 54 92 113 139 130
60 22 195 19 286 -6z m81 -155 c40 -9 101 -28 135 -42 l64 -25 -25 -25 -25
-25 -68 26 c-95 35 -142 47 -192 47 -169 0 -159 -169 25 -447 29 -45 58 -85
64 -89 6 -3 18 1 27 9 66 57 238 -8 390 -148 152 -141 229 -315 172 -388 l-20
-25 73 -46 c165 -102 336 -166 411 -152 20 4 48 18 63 31 25 21 28 30 27 87 0
49 -8 84 -38 156 -36 89 -37 94 -20 113 9 10 20 19 25 19 12 0 77 -173 89
-239 30 -169 -54 -243 -234 -206 -211 44 -478 211 -738 463 -325 316 -515 641
-476 816 22 97 109 126 271 90z m674 -60 c279 -83 475 -377 434 -651 -15 -98
-47 -169 -107 -233 -26 -28 -49 -49 -51 -47 -2 2 8 28 21 58 127 278 -69 652
-404 770 -53 19 -86 23 -180 24 -109 0 -118 -2 -183 -32 -56 -27 -66 -29 -57
-13 17 31 93 88 156 116 105 46 234 49 371 8z m-147 -303 c71 -27 163 -101
210 -170 56 -80 75 -142 75 -237 0 -73 -4 -88 -35 -149 -19 -38 -46 -75 -59
-84 l-24 -15 16 30 c69 134 24 317 -110 448 -129 126 -302 167 -441 106 l-47
-21 30 31 c83 88 247 114 385 61z"/>
<path d="M232 900 c-44 -18 -53 -80 -23 -164 64 -182 331 -447 532 -526 73
-30 152 -32 178 -5 11 11 23 33 27 49 7 28 6 29 -22 22 -78 -18 -110 -17 -165
3 -158 60 -364 248 -444 406 -38 74 -44 111 -30 183 7 37 6 42 -11 41 -11 0
-29 -4 -42 -9z"/>
</g>
</svg>
